# xmcd CD database file
#
# Track frame offsets:
#	225
#	37723
#	73150
#	113235
#	152068
#	180269
#	211470
#	260350
#
# Disc length: 3826 seconds
#
# Revision: 1
# Processed by: cddbd v1.5.1PL0 Copyright (c) Steve Scherf et al.
# Submitted via: CDex 1.51
#
DISCID=650eef08
DTITLE=swinging affair - live (in der Gondel, Hannover)
DYEAR=2002
DGENRE=Jazz
TTITLE0=Have You Met Miss Jones?
TTITLE1=Old Folks
TTITLE2=Secret Love
TTITLE3=It Don't Mean a Thing
TTITLE4=Blues By Five
TTITLE5=Song For My Father
TTITLE6=Cheek To Check
TTITLE7=What's Going On?
EXTD=YEAR: 2002
EXTT0=
EXTT1=
EXTT2=
EXTT3=
EXTT4=
EXTT5=
EXTT6=
EXTT7=
PLAYORDER=
